<svg xmlns="http://www.w3.org/2000/svg" viewBox="0 0 512 512">
  <defs>
    <linearGradient id="bg" x1="0%" y1="0%" x2="100%" y2="100%">
      <stop offset="0%" style="stop-color:#6366f1"/>
      <stop offset="100%" style="stop-color:#8b5cf6"/>
    </linearGradient>
    <linearGradient id="shine" x1="0%" y1="0%" x2="100%" y2="100%">
      <stop offset="0%" style="stop-color:#a5b4fc;stop-opacity:0.8"/>
      <stop offset="100%" style="stop-color:#c4b5fd;stop-opacity:0"/>
    </linearGradient>
  </defs>
  <!-- Background circle -->
  <circle cx="256" cy="256" r="240" fill="url(#bg)"/>
  <!-- Shine effect -->
  <ellipse cx="180" cy="160" rx="100" ry="80" fill="url(#shine)"/>
  <!-- Letter A stylized -->
  <path d="M256 100 L160 380 L200 380 L220 320 L292 320 L312 380 L352 380 L256 100 Z M236 280 L256 200 L276 280 L236 280 Z" fill="white"/>
  <!-- AI dots/nodes -->
  <circle cx="140" cy="300" r="16" fill="rgba(255,255,255,0.6)"/>
  <circle cx="372" cy="300" r="16" fill="rgba(255,255,255,0.6)"/>
  <circle cx="256" cy="420" r="16" fill="rgba(255,255,255,0.6)"/>
  <!-- Connection lines -->
  <line x1="156" y1="300" x2="200" y2="340" stroke="rgba(255,255,255,0.4)" stroke-width="3"/>
  <line x1="356" y1="300" x2="312" y2="340" stroke="rgba(255,255,255,0.4)" stroke-width="3"/>
  <line x1="256" y1="404" x2="256" y2="380" stroke="rgba(255,255,255,0.4)" stroke-width="3"/>
</svg>
